<svg xmlns="http://www.w3.org/2000/svg" width="430" height="900" viewBox="0 0 430 900"><rect width="430" height="900" fill="#f6f8fb"/><rect width="430" height="64" fill="#fff" stroke="#d9dee7"/><text x="20" y="39" font-family="Arial" font-size="19" font-weight="700" fill="#172033">E-Commerce Ops</text><text x="385" y="39" font-family="Arial" font-size="20" fill="#344054">☰</text><text x="20" y="102" font-family="Arial" font-size="24" font-weight="700" fill="#172033">Dashboard</text><text x="20" y="128" font-family="Arial" font-size="13" fill="#667085">Quick operational access</text><rect x="20" y="152" width="390" height="176" rx="12" fill="#fff" stroke="#d9dee7"/><text x="40" y="185" font-family="Arial" font-size="16" font-weight="700" fill="#172033">Create Draft Order</text><rect x="40" y="203" width="350" height="40" rx="7" fill="#fff" stroke="#98a2b3"/><text x="54" y="228" font-family="Arial" font-size="13" fill="#98a2b3">Customer phone</text><rect x="40" y="253" width="350" height="40" rx="7" fill="#fff" stroke="#98a2b3"/><text x="54" y="278" font-family="Arial" font-size="13" fill="#98a2b3">Order reference</text><rect x="40" y="303" width="350" height="40" rx="7" fill="#175cd3"/><text x="175" y="328" font-family="Arial" font-size="13" fill="#fff">Start order</text><text x="20" y="378" font-family="Arial" font-size="14" fill="#667085">Application status</text><rect x="20" y="398" width="390" height="62" rx="10" fill="#fff" stroke="#d9dee7"/><text x="40" y="425" font-family="Arial" font-size="14" font-weight="700" fill="#172033">Authentication</text><text x="250" y="425" font-family="Arial" font-size="12" fill="#667085">Authenticated</text><rect x="20" y="476" width="390" height="62" rx="10" fill="#fff" stroke="#d9dee7"/><text x="40" y="503" font-family="Arial" font-size="14" font-weight="700" fill="#172033">Workspace</text><text x="250" y="503" font-family="Arial" font-size="12" fill="#667085">Ready</text><rect x="20" y="554" width="390" height="62" rx="10" fill="#fff" stroke="#d9dee7"/><text x="40" y="581" font-family="Arial" font-size="14" font-weight="700" fill="#172033">Permissions</text><text x="250" y="581" font-family="Arial" font-size="12" fill="#667085">Role-controlled</text><rect x="20" y="632" width="390" height="62" rx="10" fill="#fff" stroke="#d9dee7"/><text x="40" y="659" font-family="Arial" font-size="14" font-weight="700" fill="#172033">Data</text><text x="250" y="659" font-family="Arial" font-size="12" fill="#667085">Authoritative backend</text><text x="20" y="735" font-family="Arial" font-size="12" fill="#98a2b3">390/430 mobile pattern: one primary task per section.</text><text x="20" y="760" font-family="Arial" font-size="12" fill="#98a2b3">Large touch targets; compact navigation; no decorative KPI data.</text><text x="20" y="785" font-family="Arial" font-size="12" fill="#98a2b3">WIREFRAME — no production business logic or data changes</text></svg>